<mxfile host="app.diagrams.net" modified="2023-09-11T01:17:57.066Z" agent="Mozilla/5.0 (Windows NT 10.0; Win64; x64) AppleWebKit/537.36 (KHTML, like Gecko) Chrome/116.0.0.0 Safari/537.36" etag="ghqpBPcG4sMmO9y9lNTV" version="21.7.2" type="github">
  <diagram name="Page-1" id="CPEC9xDhmXVfjCh-SDXK">
    <mxGraphModel dx="682" dy="1014" grid="1" gridSize="10" guides="1" tooltips="1" connect="1" arrows="1" fold="1" page="1" pageScale="1" pageWidth="4681" pageHeight="3300" math="0" shadow="0">
      <root>
        <mxCell id="0" />
        <mxCell id="1" parent="0" />
        <mxCell id="UoPR4gQVQRfJF4nbVB5T-40" style="edgeStyle=orthogonalEdgeStyle;rounded=0;orthogonalLoop=1;jettySize=auto;html=1;exitX=1;exitY=0.5;exitDx=0;exitDy=0;entryX=0;entryY=0.5;entryDx=0;entryDy=0;" edge="1" parent="1" source="UoPR4gQVQRfJF4nbVB5T-1" target="UoPR4gQVQRfJF4nbVB5T-17">
          <mxGeometry relative="1" as="geometry" />
        </mxCell>
        <mxCell id="UoPR4gQVQRfJF4nbVB5T-1" value="&lt;font style=&quot;font-size: 17px;&quot;&gt;&lt;b&gt;GamePanel.drawGame&lt;/b&gt;&lt;/font&gt;" style="rounded=1;whiteSpace=wrap;html=1;" vertex="1" parent="1">
          <mxGeometry x="70" y="60" width="220" height="70" as="geometry" />
        </mxCell>
        <mxCell id="UoPR4gQVQRfJF4nbVB5T-3" value="&lt;font style=&quot;font-size: 17px;&quot;&gt;&lt;b&gt;GamePanel.drawPaddle&lt;/b&gt;&lt;/font&gt;" style="rounded=1;whiteSpace=wrap;html=1;" vertex="1" parent="1">
          <mxGeometry x="420" y="60" width="220" height="70" as="geometry" />
        </mxCell>
        <mxCell id="UoPR4gQVQRfJF4nbVB5T-4" value="&lt;font size=&quot;1&quot; style=&quot;&quot;&gt;&lt;b style=&quot;font-size: 17px;&quot;&gt;PBG.getPaddle&lt;/b&gt;&lt;/font&gt;" style="rounded=1;whiteSpace=wrap;html=1;" vertex="1" parent="1">
          <mxGeometry x="800" y="30" width="180" height="60" as="geometry" />
        </mxCell>
        <mxCell id="UoPR4gQVQRfJF4nbVB5T-5" value="&lt;font size=&quot;1&quot; style=&quot;&quot;&gt;&lt;b style=&quot;font-size: 17px;&quot;&gt;Graphics.getColor&lt;br&gt;&lt;/b&gt;&lt;/font&gt;" style="rounded=1;whiteSpace=wrap;html=1;" vertex="1" parent="1">
          <mxGeometry x="800" y="380" width="180" height="60" as="geometry" />
        </mxCell>
        <mxCell id="UoPR4gQVQRfJF4nbVB5T-6" value="&lt;font size=&quot;1&quot; style=&quot;&quot;&gt;&lt;b style=&quot;font-size: 17px;&quot;&gt;Graphics.setColor&lt;br&gt;&lt;/b&gt;&lt;/font&gt;" style="rounded=1;whiteSpace=wrap;html=1;" vertex="1" parent="1">
          <mxGeometry x="800" y="520" width="180" height="60" as="geometry" />
        </mxCell>
        <mxCell id="UoPR4gQVQRfJF4nbVB5T-7" value="&lt;font size=&quot;1&quot; style=&quot;&quot;&gt;&lt;b style=&quot;font-size: 17px;&quot;&gt;Graphics.fillRect&lt;br&gt;&lt;/b&gt;&lt;/font&gt;" style="rounded=1;whiteSpace=wrap;html=1;" vertex="1" parent="1">
          <mxGeometry x="800" y="240" width="180" height="60" as="geometry" />
        </mxCell>
        <mxCell id="UoPR4gQVQRfJF4nbVB5T-8" value="&lt;font size=&quot;1&quot; style=&quot;&quot;&gt;&lt;b style=&quot;font-size: 17px;&quot;&gt;Paddle.getX&lt;br&gt;&lt;/b&gt;&lt;/font&gt;" style="rounded=1;whiteSpace=wrap;html=1;" vertex="1" parent="1">
          <mxGeometry x="800" y="130" width="180" height="60" as="geometry" />
        </mxCell>
        <mxCell id="UoPR4gQVQRfJF4nbVB5T-17" value="&lt;font style=&quot;font-size: 17px;&quot;&gt;&lt;b&gt;GamePanel.drawBall&lt;br&gt;&lt;/b&gt;&lt;/font&gt;" style="rounded=1;whiteSpace=wrap;html=1;" vertex="1" parent="1">
          <mxGeometry x="420" y="710" width="220" height="70" as="geometry" />
        </mxCell>
        <mxCell id="UoPR4gQVQRfJF4nbVB5T-18" value="&lt;font size=&quot;1&quot; style=&quot;&quot;&gt;&lt;b style=&quot;font-size: 17px;&quot;&gt;PBG.getBall&lt;/b&gt;&lt;/font&gt;" style="rounded=1;whiteSpace=wrap;html=1;" vertex="1" parent="1">
          <mxGeometry x="800" y="715" width="180" height="60" as="geometry" />
        </mxCell>
        <mxCell id="UoPR4gQVQRfJF4nbVB5T-20" value="" style="endArrow=classic;html=1;rounded=0;exitX=1;exitY=0.25;exitDx=0;exitDy=0;entryX=0;entryY=0.5;entryDx=0;entryDy=0;" edge="1" parent="1" source="UoPR4gQVQRfJF4nbVB5T-3" target="UoPR4gQVQRfJF4nbVB5T-8">
          <mxGeometry width="50" height="50" relative="1" as="geometry">
            <mxPoint x="750" y="500" as="sourcePoint" />
            <mxPoint x="800" y="450" as="targetPoint" />
          </mxGeometry>
        </mxCell>
        <mxCell id="UoPR4gQVQRfJF4nbVB5T-21" value="" style="endArrow=classic;html=1;rounded=0;exitX=1;exitY=0.5;exitDx=0;exitDy=0;entryX=0;entryY=0.5;entryDx=0;entryDy=0;" edge="1" parent="1" source="UoPR4gQVQRfJF4nbVB5T-3" target="UoPR4gQVQRfJF4nbVB5T-7">
          <mxGeometry width="50" height="50" relative="1" as="geometry">
            <mxPoint x="630" y="310" as="sourcePoint" />
            <mxPoint x="760" y="445" as="targetPoint" />
          </mxGeometry>
        </mxCell>
        <mxCell id="UoPR4gQVQRfJF4nbVB5T-22" value="" style="endArrow=classic;html=1;rounded=0;exitX=1;exitY=0.75;exitDx=0;exitDy=0;entryX=0;entryY=0.25;entryDx=0;entryDy=0;" edge="1" parent="1" source="UoPR4gQVQRfJF4nbVB5T-3" target="UoPR4gQVQRfJF4nbVB5T-5">
          <mxGeometry width="50" height="50" relative="1" as="geometry">
            <mxPoint x="550" y="300" as="sourcePoint" />
            <mxPoint x="680" y="435" as="targetPoint" />
          </mxGeometry>
        </mxCell>
        <mxCell id="UoPR4gQVQRfJF4nbVB5T-24" value="" style="endArrow=classic;html=1;rounded=0;exitX=1;exitY=0.25;exitDx=0;exitDy=0;entryX=0;entryY=0.25;entryDx=0;entryDy=0;" edge="1" parent="1" source="UoPR4gQVQRfJF4nbVB5T-3" target="UoPR4gQVQRfJF4nbVB5T-4">
          <mxGeometry width="50" height="50" relative="1" as="geometry">
            <mxPoint x="580" y="240" as="sourcePoint" />
            <mxPoint x="710" y="375" as="targetPoint" />
          </mxGeometry>
        </mxCell>
        <mxCell id="UoPR4gQVQRfJF4nbVB5T-25" value="" style="endArrow=classic;html=1;rounded=0;exitX=1;exitY=0.75;exitDx=0;exitDy=0;entryX=0;entryY=0.25;entryDx=0;entryDy=0;" edge="1" parent="1" source="UoPR4gQVQRfJF4nbVB5T-3" target="UoPR4gQVQRfJF4nbVB5T-6">
          <mxGeometry width="50" height="50" relative="1" as="geometry">
            <mxPoint x="610" y="330" as="sourcePoint" />
            <mxPoint x="740" y="465" as="targetPoint" />
          </mxGeometry>
        </mxCell>
        <mxCell id="UoPR4gQVQRfJF4nbVB5T-26" value="" style="endArrow=classic;html=1;rounded=0;exitX=1;exitY=0.25;exitDx=0;exitDy=0;entryX=0;entryY=0.75;entryDx=0;entryDy=0;" edge="1" parent="1" source="UoPR4gQVQRfJF4nbVB5T-17" target="UoPR4gQVQRfJF4nbVB5T-5">
          <mxGeometry width="50" height="50" relative="1" as="geometry">
            <mxPoint x="660" y="540" as="sourcePoint" />
            <mxPoint x="790" y="675" as="targetPoint" />
          </mxGeometry>
        </mxCell>
        <mxCell id="UoPR4gQVQRfJF4nbVB5T-27" value="" style="endArrow=classic;html=1;rounded=0;exitX=1;exitY=0.25;exitDx=0;exitDy=0;entryX=0;entryY=0.75;entryDx=0;entryDy=0;" edge="1" parent="1" source="UoPR4gQVQRfJF4nbVB5T-17" target="UoPR4gQVQRfJF4nbVB5T-6">
          <mxGeometry width="50" height="50" relative="1" as="geometry">
            <mxPoint x="700" y="730" as="sourcePoint" />
            <mxPoint x="830" y="865" as="targetPoint" />
          </mxGeometry>
        </mxCell>
        <mxCell id="UoPR4gQVQRfJF4nbVB5T-28" value="&lt;font size=&quot;1&quot; style=&quot;&quot;&gt;&lt;b style=&quot;font-size: 17px;&quot;&gt;Graphics.fillOval&lt;br&gt;&lt;/b&gt;&lt;/font&gt;" style="rounded=1;whiteSpace=wrap;html=1;" vertex="1" parent="1">
          <mxGeometry x="800" y="850" width="180" height="60" as="geometry" />
        </mxCell>
        <mxCell id="UoPR4gQVQRfJF4nbVB5T-29" value="&lt;font size=&quot;1&quot; style=&quot;&quot;&gt;&lt;b style=&quot;font-size: 17px;&quot;&gt;Ball.getX&lt;br&gt;&lt;/b&gt;&lt;/font&gt;" style="rounded=1;whiteSpace=wrap;html=1;" vertex="1" parent="1">
          <mxGeometry x="815" y="990" width="150" height="60" as="geometry" />
        </mxCell>
        <mxCell id="UoPR4gQVQRfJF4nbVB5T-30" value="&lt;font size=&quot;1&quot; style=&quot;&quot;&gt;&lt;b style=&quot;font-size: 17px;&quot;&gt;Ball.getY&lt;br&gt;&lt;/b&gt;&lt;/font&gt;" style="rounded=1;whiteSpace=wrap;html=1;" vertex="1" parent="1">
          <mxGeometry x="815" y="1130" width="150" height="60" as="geometry" />
        </mxCell>
        <mxCell id="UoPR4gQVQRfJF4nbVB5T-31" style="edgeStyle=orthogonalEdgeStyle;rounded=0;orthogonalLoop=1;jettySize=auto;html=1;exitX=0.5;exitY=1;exitDx=0;exitDy=0;" edge="1" parent="1" source="UoPR4gQVQRfJF4nbVB5T-30" target="UoPR4gQVQRfJF4nbVB5T-30">
          <mxGeometry relative="1" as="geometry" />
        </mxCell>
        <mxCell id="UoPR4gQVQRfJF4nbVB5T-33" value="" style="endArrow=classic;html=1;rounded=0;exitX=1;exitY=0.5;exitDx=0;exitDy=0;entryX=0;entryY=0.5;entryDx=0;entryDy=0;" edge="1" parent="1" source="UoPR4gQVQRfJF4nbVB5T-17" target="UoPR4gQVQRfJF4nbVB5T-18">
          <mxGeometry width="50" height="50" relative="1" as="geometry">
            <mxPoint x="750" y="930" as="sourcePoint" />
            <mxPoint x="800" y="880" as="targetPoint" />
          </mxGeometry>
        </mxCell>
        <mxCell id="UoPR4gQVQRfJF4nbVB5T-35" value="" style="endArrow=classic;html=1;rounded=0;exitX=1;exitY=0.5;exitDx=0;exitDy=0;entryX=0;entryY=0.5;entryDx=0;entryDy=0;" edge="1" parent="1" source="UoPR4gQVQRfJF4nbVB5T-17" target="UoPR4gQVQRfJF4nbVB5T-28">
          <mxGeometry width="50" height="50" relative="1" as="geometry">
            <mxPoint x="690" y="790" as="sourcePoint" />
            <mxPoint x="850" y="790" as="targetPoint" />
          </mxGeometry>
        </mxCell>
        <mxCell id="UoPR4gQVQRfJF4nbVB5T-36" value="" style="endArrow=classic;html=1;rounded=0;exitX=1;exitY=0.75;exitDx=0;exitDy=0;entryX=0;entryY=0.5;entryDx=0;entryDy=0;" edge="1" parent="1" source="UoPR4gQVQRfJF4nbVB5T-17" target="UoPR4gQVQRfJF4nbVB5T-29">
          <mxGeometry width="50" height="50" relative="1" as="geometry">
            <mxPoint x="640" y="970" as="sourcePoint" />
            <mxPoint x="800" y="970" as="targetPoint" />
          </mxGeometry>
        </mxCell>
        <mxCell id="UoPR4gQVQRfJF4nbVB5T-37" value="" style="endArrow=classic;html=1;rounded=0;exitX=1.014;exitY=0.907;exitDx=0;exitDy=0;entryX=0;entryY=0.5;entryDx=0;entryDy=0;exitPerimeter=0;" edge="1" parent="1" source="UoPR4gQVQRfJF4nbVB5T-17" target="UoPR4gQVQRfJF4nbVB5T-30">
          <mxGeometry width="50" height="50" relative="1" as="geometry">
            <mxPoint x="620" y="1030" as="sourcePoint" />
            <mxPoint x="780" y="1030" as="targetPoint" />
          </mxGeometry>
        </mxCell>
        <mxCell id="UoPR4gQVQRfJF4nbVB5T-39" value="" style="endArrow=classic;html=1;rounded=0;exitX=1;exitY=0.5;exitDx=0;exitDy=0;entryX=0;entryY=0.5;entryDx=0;entryDy=0;" edge="1" parent="1" source="UoPR4gQVQRfJF4nbVB5T-1" target="UoPR4gQVQRfJF4nbVB5T-3">
          <mxGeometry width="50" height="50" relative="1" as="geometry">
            <mxPoint x="310" y="260" as="sourcePoint" />
            <mxPoint x="470" y="260" as="targetPoint" />
          </mxGeometry>
        </mxCell>
      </root>
    </mxGraphModel>
  </diagram>
</mxfile>
